<mxfile host="app.diagrams.net" modified="2024-04-16T21:20:40.468Z" agent="Mozilla/5.0 (Macintosh; Intel Mac OS X 10_15_7) AppleWebKit/537.36 (KHTML, like Gecko) Chrome/123.0.0.0 Safari/537.36" etag="dkwedoutzD76I501Wn5Y" version="24.2.5" type="github">
  <diagram id="C5RBs43oDa-KdzZeNtuy" name="Page-1">
    <mxGraphModel dx="2419" dy="1008" grid="1" gridSize="10" guides="1" tooltips="1" connect="1" arrows="1" fold="1" page="1" pageScale="1" pageWidth="827" pageHeight="1169" math="0" shadow="0">
      <root>
        <mxCell id="WIyWlLk6GJQsqaUBKTNV-0" />
        <mxCell id="WIyWlLk6GJQsqaUBKTNV-1" parent="WIyWlLk6GJQsqaUBKTNV-0" />
        <mxCell id="2Pg-pRZ9r6hjVL81onpJ-0" value="In-house (Serverless PACS)&#xa;Uploader" style="swimlane;fontStyle=2;align=center;verticalAlign=top;childLayout=stackLayout;horizontal=1;startSize=40;horizontalStack=0;resizeParent=1;resizeLast=0;collapsible=1;marginBottom=0;rounded=0;shadow=0;strokeWidth=1;" vertex="1" parent="WIyWlLk6GJQsqaUBKTNV-1">
          <mxGeometry x="-80" y="230" width="220" height="320" as="geometry">
            <mxRectangle x="230" y="140" width="160" height="26" as="alternateBounds" />
          </mxGeometry>
        </mxCell>
        <mxCell id="2Pg-pRZ9r6hjVL81onpJ-1" value="Get latest unprocessed scan" style="text;align=left;verticalAlign=top;spacingLeft=4;spacingRight=4;overflow=hidden;rotatable=0;points=[[0,0.5],[1,0.5]];portConstraint=eastwest;whiteSpace=wrap;" vertex="1" parent="2Pg-pRZ9r6hjVL81onpJ-0">
          <mxGeometry y="40" width="220" height="20" as="geometry" />
        </mxCell>
        <mxCell id="2Pg-pRZ9r6hjVL81onpJ-4" value="" style="line;html=1;strokeWidth=1;align=left;verticalAlign=middle;spacingTop=-1;spacingLeft=3;spacingRight=3;rotatable=0;labelPosition=right;points=[];portConstraint=eastwest;" vertex="1" parent="2Pg-pRZ9r6hjVL81onpJ-0">
          <mxGeometry y="60" width="220" height="8" as="geometry" />
        </mxCell>
        <mxCell id="2Pg-pRZ9r6hjVL81onpJ-3" value="Set worklist issue status to in-progress" style="text;align=left;verticalAlign=top;spacingLeft=4;spacingRight=4;overflow=hidden;rotatable=0;points=[[0,0.5],[1,0.5]];portConstraint=eastwest;rounded=0;shadow=0;html=0;whiteSpace=wrap;" vertex="1" parent="2Pg-pRZ9r6hjVL81onpJ-0">
          <mxGeometry y="68" width="220" height="22" as="geometry" />
        </mxCell>
        <mxCell id="2Pg-pRZ9r6hjVL81onpJ-60" value="" style="line;html=1;strokeWidth=1;align=left;verticalAlign=middle;spacingTop=-1;spacingLeft=3;spacingRight=3;rotatable=0;labelPosition=right;points=[];portConstraint=eastwest;" vertex="1" parent="2Pg-pRZ9r6hjVL81onpJ-0">
          <mxGeometry y="90" width="220" height="8" as="geometry" />
        </mxCell>
        <mxCell id="2Pg-pRZ9r6hjVL81onpJ-5" value="Get media path by worklist id" style="text;align=left;verticalAlign=top;spacingLeft=4;spacingRight=4;overflow=hidden;rotatable=0;points=[[0,0.5],[1,0.5]];portConstraint=eastwest;whiteSpace=wrap;" vertex="1" parent="2Pg-pRZ9r6hjVL81onpJ-0">
          <mxGeometry y="98" width="220" height="22" as="geometry" />
        </mxCell>
        <mxCell id="2Pg-pRZ9r6hjVL81onpJ-71" value="" style="line;html=1;strokeWidth=1;align=left;verticalAlign=middle;spacingTop=-1;spacingLeft=3;spacingRight=3;rotatable=0;labelPosition=right;points=[];portConstraint=eastwest;" vertex="1" parent="2Pg-pRZ9r6hjVL81onpJ-0">
          <mxGeometry y="120" width="220" height="8" as="geometry" />
        </mxCell>
        <mxCell id="2Pg-pRZ9r6hjVL81onpJ-62" value="Download study from prod bucket" style="text;align=left;verticalAlign=top;spacingLeft=4;spacingRight=4;overflow=hidden;rotatable=0;points=[[0,0.5],[1,0.5]];portConstraint=eastwest;whiteSpace=wrap;" vertex="1" parent="2Pg-pRZ9r6hjVL81onpJ-0">
          <mxGeometry y="128" width="220" height="22" as="geometry" />
        </mxCell>
        <mxCell id="2Pg-pRZ9r6hjVL81onpJ-61" value="" style="line;html=1;strokeWidth=1;align=left;verticalAlign=middle;spacingTop=-1;spacingLeft=3;spacingRight=3;rotatable=0;labelPosition=right;points=[];portConstraint=eastwest;" vertex="1" parent="2Pg-pRZ9r6hjVL81onpJ-0">
          <mxGeometry y="150" width="220" height="8" as="geometry" />
        </mxCell>
        <mxCell id="2Pg-pRZ9r6hjVL81onpJ-63" value="Decompress zip file into /tmp/decompressed" style="text;align=left;verticalAlign=top;spacingLeft=4;spacingRight=4;overflow=hidden;rotatable=0;points=[[0,0.5],[1,0.5]];portConstraint=eastwest;whiteSpace=wrap;" vertex="1" parent="2Pg-pRZ9r6hjVL81onpJ-0">
          <mxGeometry y="158" width="220" height="40" as="geometry" />
        </mxCell>
        <mxCell id="2Pg-pRZ9r6hjVL81onpJ-70" value="" style="line;html=1;strokeWidth=1;align=left;verticalAlign=middle;spacingTop=-1;spacingLeft=3;spacingRight=3;rotatable=0;labelPosition=right;points=[];portConstraint=eastwest;" vertex="1" parent="2Pg-pRZ9r6hjVL81onpJ-0">
          <mxGeometry y="198" width="220" height="8" as="geometry" />
        </mxCell>
        <mxCell id="2Pg-pRZ9r6hjVL81onpJ-64" value="Upload files to stow endpoint" style="text;align=left;verticalAlign=top;spacingLeft=4;spacingRight=4;overflow=hidden;rotatable=0;points=[[0,0.5],[1,0.5]];portConstraint=eastwest;whiteSpace=wrap;" vertex="1" parent="2Pg-pRZ9r6hjVL81onpJ-0">
          <mxGeometry y="206" width="220" height="24" as="geometry" />
        </mxCell>
        <mxCell id="2Pg-pRZ9r6hjVL81onpJ-69" value="" style="line;html=1;strokeWidth=1;align=left;verticalAlign=middle;spacingTop=-1;spacingLeft=3;spacingRight=3;rotatable=0;labelPosition=right;points=[];portConstraint=eastwest;" vertex="1" parent="2Pg-pRZ9r6hjVL81onpJ-0">
          <mxGeometry y="230" width="220" height="8" as="geometry" />
        </mxCell>
        <mxCell id="2Pg-pRZ9r6hjVL81onpJ-65" value="Unlink/delete all study related files in /tmp/decompressed" style="text;align=left;verticalAlign=top;spacingLeft=4;spacingRight=4;overflow=hidden;rotatable=0;points=[[0,0.5],[1,0.5]];portConstraint=eastwest;whiteSpace=wrap;" vertex="1" parent="2Pg-pRZ9r6hjVL81onpJ-0">
          <mxGeometry y="238" width="220" height="42" as="geometry" />
        </mxCell>
        <mxCell id="2Pg-pRZ9r6hjVL81onpJ-67" value="" style="line;html=1;strokeWidth=1;align=left;verticalAlign=middle;spacingTop=-1;spacingLeft=3;spacingRight=3;rotatable=0;labelPosition=right;points=[];portConstraint=eastwest;" vertex="1" parent="2Pg-pRZ9r6hjVL81onpJ-0">
          <mxGeometry y="280" width="220" height="8" as="geometry" />
        </mxCell>
        <mxCell id="2Pg-pRZ9r6hjVL81onpJ-66" value="Finalize by scan db updates" style="text;align=left;verticalAlign=top;spacingLeft=4;spacingRight=4;overflow=hidden;rotatable=0;points=[[0,0.5],[1,0.5]];portConstraint=eastwest;whiteSpace=wrap;" vertex="1" parent="2Pg-pRZ9r6hjVL81onpJ-0">
          <mxGeometry y="288" width="220" height="22" as="geometry" />
        </mxCell>
        <mxCell id="2Pg-pRZ9r6hjVL81onpJ-47" style="edgeStyle=orthogonalEdgeStyle;rounded=0;orthogonalLoop=1;jettySize=auto;html=1;entryX=0.5;entryY=0;entryDx=0;entryDy=0;" edge="1" parent="WIyWlLk6GJQsqaUBKTNV-1" source="2Pg-pRZ9r6hjVL81onpJ-6" target="2Pg-pRZ9r6hjVL81onpJ-72">
          <mxGeometry relative="1" as="geometry">
            <mxPoint x="316" y="230" as="targetPoint" />
            <Array as="points">
              <mxPoint x="414" y="160" />
              <mxPoint x="290" y="160" />
            </Array>
          </mxGeometry>
        </mxCell>
        <mxCell id="2Pg-pRZ9r6hjVL81onpJ-48" style="edgeStyle=orthogonalEdgeStyle;rounded=0;orthogonalLoop=1;jettySize=auto;html=1;entryX=0.5;entryY=0;entryDx=0;entryDy=0;" edge="1" parent="WIyWlLk6GJQsqaUBKTNV-1" source="2Pg-pRZ9r6hjVL81onpJ-6" target="2Pg-pRZ9r6hjVL81onpJ-104">
          <mxGeometry relative="1" as="geometry">
            <mxPoint x="520" y="230" as="targetPoint" />
            <Array as="points">
              <mxPoint x="414" y="160" />
              <mxPoint x="550" y="160" />
              <mxPoint x="550" y="230" />
            </Array>
          </mxGeometry>
        </mxCell>
        <mxCell id="2Pg-pRZ9r6hjVL81onpJ-55" style="edgeStyle=orthogonalEdgeStyle;rounded=0;orthogonalLoop=1;jettySize=auto;html=1;entryX=0.5;entryY=0;entryDx=0;entryDy=0;" edge="1" parent="WIyWlLk6GJQsqaUBKTNV-1" source="2Pg-pRZ9r6hjVL81onpJ-6" target="2Pg-pRZ9r6hjVL81onpJ-0">
          <mxGeometry relative="1" as="geometry">
            <Array as="points">
              <mxPoint x="414" y="160" />
              <mxPoint x="30" y="160" />
            </Array>
          </mxGeometry>
        </mxCell>
        <mxCell id="2Pg-pRZ9r6hjVL81onpJ-56" style="edgeStyle=orthogonalEdgeStyle;rounded=0;orthogonalLoop=1;jettySize=auto;html=1;entryX=0.5;entryY=0;entryDx=0;entryDy=0;" edge="1" parent="WIyWlLk6GJQsqaUBKTNV-1" source="2Pg-pRZ9r6hjVL81onpJ-6" target="2Pg-pRZ9r6hjVL81onpJ-88">
          <mxGeometry relative="1" as="geometry">
            <mxPoint x="720" y="230" as="targetPoint" />
            <Array as="points">
              <mxPoint x="414" y="160" />
              <mxPoint x="810" y="160" />
            </Array>
          </mxGeometry>
        </mxCell>
        <mxCell id="2Pg-pRZ9r6hjVL81onpJ-59" value="3 minute cron interval" style="edgeLabel;html=1;align=center;verticalAlign=middle;resizable=0;points=[];" vertex="1" connectable="0" parent="2Pg-pRZ9r6hjVL81onpJ-56">
          <mxGeometry x="-0.8266" y="-1" relative="1" as="geometry">
            <mxPoint as="offset" />
          </mxGeometry>
        </mxCell>
        <mxCell id="2Pg-pRZ9r6hjVL81onpJ-6" value="Scan Source (Sync)" style="swimlane;fontStyle=0;align=center;verticalAlign=top;childLayout=stackLayout;horizontal=1;startSize=26;horizontalStack=0;resizeParent=1;resizeLast=0;collapsible=1;marginBottom=0;rounded=0;shadow=0;strokeWidth=1;" vertex="1" parent="WIyWlLk6GJQsqaUBKTNV-1">
          <mxGeometry x="334" y="26" width="160" height="54" as="geometry">
            <mxRectangle x="50" y="286" width="160" height="26" as="alternateBounds" />
          </mxGeometry>
        </mxCell>
        <mxCell id="2Pg-pRZ9r6hjVL81onpJ-7" value="Zipped Study" style="text;align=left;verticalAlign=top;spacingLeft=4;spacingRight=4;overflow=hidden;rotatable=0;points=[[0,0.5],[1,0.5]];portConstraint=eastwest;" vertex="1" parent="2Pg-pRZ9r6hjVL81onpJ-6">
          <mxGeometry y="26" width="160" height="26" as="geometry" />
        </mxCell>
        <mxCell id="2Pg-pRZ9r6hjVL81onpJ-72" value="Orthanc&#xa;Uploader" style="swimlane;fontStyle=2;align=center;verticalAlign=top;childLayout=stackLayout;horizontal=1;startSize=40;horizontalStack=0;resizeParent=1;resizeLast=0;collapsible=1;marginBottom=0;rounded=0;shadow=0;strokeWidth=1;" vertex="1" parent="WIyWlLk6GJQsqaUBKTNV-1">
          <mxGeometry x="180" y="230" width="220" height="320" as="geometry">
            <mxRectangle x="230" y="140" width="160" height="26" as="alternateBounds" />
          </mxGeometry>
        </mxCell>
        <mxCell id="2Pg-pRZ9r6hjVL81onpJ-73" value="Get latest unprocessed scan" style="text;align=left;verticalAlign=top;spacingLeft=4;spacingRight=4;overflow=hidden;rotatable=0;points=[[0,0.5],[1,0.5]];portConstraint=eastwest;whiteSpace=wrap;" vertex="1" parent="2Pg-pRZ9r6hjVL81onpJ-72">
          <mxGeometry y="40" width="220" height="20" as="geometry" />
        </mxCell>
        <mxCell id="2Pg-pRZ9r6hjVL81onpJ-74" value="" style="line;html=1;strokeWidth=1;align=left;verticalAlign=middle;spacingTop=-1;spacingLeft=3;spacingRight=3;rotatable=0;labelPosition=right;points=[];portConstraint=eastwest;" vertex="1" parent="2Pg-pRZ9r6hjVL81onpJ-72">
          <mxGeometry y="60" width="220" height="8" as="geometry" />
        </mxCell>
        <mxCell id="2Pg-pRZ9r6hjVL81onpJ-75" value="Set worklist issue status to in-progress" style="text;align=left;verticalAlign=top;spacingLeft=4;spacingRight=4;overflow=hidden;rotatable=0;points=[[0,0.5],[1,0.5]];portConstraint=eastwest;rounded=0;shadow=0;html=0;whiteSpace=wrap;" vertex="1" parent="2Pg-pRZ9r6hjVL81onpJ-72">
          <mxGeometry y="68" width="220" height="22" as="geometry" />
        </mxCell>
        <mxCell id="2Pg-pRZ9r6hjVL81onpJ-76" value="" style="line;html=1;strokeWidth=1;align=left;verticalAlign=middle;spacingTop=-1;spacingLeft=3;spacingRight=3;rotatable=0;labelPosition=right;points=[];portConstraint=eastwest;" vertex="1" parent="2Pg-pRZ9r6hjVL81onpJ-72">
          <mxGeometry y="90" width="220" height="8" as="geometry" />
        </mxCell>
        <mxCell id="2Pg-pRZ9r6hjVL81onpJ-77" value="Get media path by worklist id" style="text;align=left;verticalAlign=top;spacingLeft=4;spacingRight=4;overflow=hidden;rotatable=0;points=[[0,0.5],[1,0.5]];portConstraint=eastwest;whiteSpace=wrap;" vertex="1" parent="2Pg-pRZ9r6hjVL81onpJ-72">
          <mxGeometry y="98" width="220" height="22" as="geometry" />
        </mxCell>
        <mxCell id="2Pg-pRZ9r6hjVL81onpJ-78" value="" style="line;html=1;strokeWidth=1;align=left;verticalAlign=middle;spacingTop=-1;spacingLeft=3;spacingRight=3;rotatable=0;labelPosition=right;points=[];portConstraint=eastwest;" vertex="1" parent="2Pg-pRZ9r6hjVL81onpJ-72">
          <mxGeometry y="120" width="220" height="8" as="geometry" />
        </mxCell>
        <mxCell id="2Pg-pRZ9r6hjVL81onpJ-79" value="Download study from prod bucket" style="text;align=left;verticalAlign=top;spacingLeft=4;spacingRight=4;overflow=hidden;rotatable=0;points=[[0,0.5],[1,0.5]];portConstraint=eastwest;whiteSpace=wrap;" vertex="1" parent="2Pg-pRZ9r6hjVL81onpJ-72">
          <mxGeometry y="128" width="220" height="22" as="geometry" />
        </mxCell>
        <mxCell id="2Pg-pRZ9r6hjVL81onpJ-80" value="" style="line;html=1;strokeWidth=1;align=left;verticalAlign=middle;spacingTop=-1;spacingLeft=3;spacingRight=3;rotatable=0;labelPosition=right;points=[];portConstraint=eastwest;" vertex="1" parent="2Pg-pRZ9r6hjVL81onpJ-72">
          <mxGeometry y="150" width="220" height="8" as="geometry" />
        </mxCell>
        <mxCell id="2Pg-pRZ9r6hjVL81onpJ-81" value="Decompress zip file into /tmp/decompressed" style="text;align=left;verticalAlign=top;spacingLeft=4;spacingRight=4;overflow=hidden;rotatable=0;points=[[0,0.5],[1,0.5]];portConstraint=eastwest;whiteSpace=wrap;" vertex="1" parent="2Pg-pRZ9r6hjVL81onpJ-72">
          <mxGeometry y="158" width="220" height="40" as="geometry" />
        </mxCell>
        <mxCell id="2Pg-pRZ9r6hjVL81onpJ-82" value="" style="line;html=1;strokeWidth=1;align=left;verticalAlign=middle;spacingTop=-1;spacingLeft=3;spacingRight=3;rotatable=0;labelPosition=right;points=[];portConstraint=eastwest;" vertex="1" parent="2Pg-pRZ9r6hjVL81onpJ-72">
          <mxGeometry y="198" width="220" height="8" as="geometry" />
        </mxCell>
        <mxCell id="2Pg-pRZ9r6hjVL81onpJ-83" value="Upload files to stow endpoint" style="text;align=left;verticalAlign=top;spacingLeft=4;spacingRight=4;overflow=hidden;rotatable=0;points=[[0,0.5],[1,0.5]];portConstraint=eastwest;whiteSpace=wrap;" vertex="1" parent="2Pg-pRZ9r6hjVL81onpJ-72">
          <mxGeometry y="206" width="220" height="24" as="geometry" />
        </mxCell>
        <mxCell id="2Pg-pRZ9r6hjVL81onpJ-84" value="" style="line;html=1;strokeWidth=1;align=left;verticalAlign=middle;spacingTop=-1;spacingLeft=3;spacingRight=3;rotatable=0;labelPosition=right;points=[];portConstraint=eastwest;" vertex="1" parent="2Pg-pRZ9r6hjVL81onpJ-72">
          <mxGeometry y="230" width="220" height="8" as="geometry" />
        </mxCell>
        <mxCell id="2Pg-pRZ9r6hjVL81onpJ-85" value="Unlink/delete all study related files in /tmp/decompressed" style="text;align=left;verticalAlign=top;spacingLeft=4;spacingRight=4;overflow=hidden;rotatable=0;points=[[0,0.5],[1,0.5]];portConstraint=eastwest;whiteSpace=wrap;" vertex="1" parent="2Pg-pRZ9r6hjVL81onpJ-72">
          <mxGeometry y="238" width="220" height="42" as="geometry" />
        </mxCell>
        <mxCell id="2Pg-pRZ9r6hjVL81onpJ-86" value="" style="line;html=1;strokeWidth=1;align=left;verticalAlign=middle;spacingTop=-1;spacingLeft=3;spacingRight=3;rotatable=0;labelPosition=right;points=[];portConstraint=eastwest;" vertex="1" parent="2Pg-pRZ9r6hjVL81onpJ-72">
          <mxGeometry y="280" width="220" height="8" as="geometry" />
        </mxCell>
        <mxCell id="2Pg-pRZ9r6hjVL81onpJ-87" value="Finalize by scan db updates" style="text;align=left;verticalAlign=top;spacingLeft=4;spacingRight=4;overflow=hidden;rotatable=0;points=[[0,0.5],[1,0.5]];portConstraint=eastwest;whiteSpace=wrap;" vertex="1" parent="2Pg-pRZ9r6hjVL81onpJ-72">
          <mxGeometry y="288" width="220" height="22" as="geometry" />
        </mxCell>
        <mxCell id="2Pg-pRZ9r6hjVL81onpJ-88" value="PostDICOM&#xa;Uploader (INACTIVE)" style="swimlane;fontStyle=2;align=center;verticalAlign=top;childLayout=stackLayout;horizontal=1;startSize=40;horizontalStack=0;resizeParent=1;resizeLast=0;collapsible=1;marginBottom=0;rounded=0;shadow=0;strokeWidth=1;" vertex="1" parent="WIyWlLk6GJQsqaUBKTNV-1">
          <mxGeometry x="700" y="230" width="220" height="320" as="geometry">
            <mxRectangle x="230" y="140" width="160" height="26" as="alternateBounds" />
          </mxGeometry>
        </mxCell>
        <mxCell id="2Pg-pRZ9r6hjVL81onpJ-89" value="Get latest unprocessed scan" style="text;align=left;verticalAlign=top;spacingLeft=4;spacingRight=4;overflow=hidden;rotatable=0;points=[[0,0.5],[1,0.5]];portConstraint=eastwest;whiteSpace=wrap;" vertex="1" parent="2Pg-pRZ9r6hjVL81onpJ-88">
          <mxGeometry y="40" width="220" height="20" as="geometry" />
        </mxCell>
        <mxCell id="2Pg-pRZ9r6hjVL81onpJ-90" value="" style="line;html=1;strokeWidth=1;align=left;verticalAlign=middle;spacingTop=-1;spacingLeft=3;spacingRight=3;rotatable=0;labelPosition=right;points=[];portConstraint=eastwest;" vertex="1" parent="2Pg-pRZ9r6hjVL81onpJ-88">
          <mxGeometry y="60" width="220" height="8" as="geometry" />
        </mxCell>
        <mxCell id="2Pg-pRZ9r6hjVL81onpJ-91" value="Set worklist issue status to in-progress" style="text;align=left;verticalAlign=top;spacingLeft=4;spacingRight=4;overflow=hidden;rotatable=0;points=[[0,0.5],[1,0.5]];portConstraint=eastwest;rounded=0;shadow=0;html=0;whiteSpace=wrap;" vertex="1" parent="2Pg-pRZ9r6hjVL81onpJ-88">
          <mxGeometry y="68" width="220" height="22" as="geometry" />
        </mxCell>
        <mxCell id="2Pg-pRZ9r6hjVL81onpJ-92" value="" style="line;html=1;strokeWidth=1;align=left;verticalAlign=middle;spacingTop=-1;spacingLeft=3;spacingRight=3;rotatable=0;labelPosition=right;points=[];portConstraint=eastwest;" vertex="1" parent="2Pg-pRZ9r6hjVL81onpJ-88">
          <mxGeometry y="90" width="220" height="8" as="geometry" />
        </mxCell>
        <mxCell id="2Pg-pRZ9r6hjVL81onpJ-93" value="Get media path by worklist id" style="text;align=left;verticalAlign=top;spacingLeft=4;spacingRight=4;overflow=hidden;rotatable=0;points=[[0,0.5],[1,0.5]];portConstraint=eastwest;whiteSpace=wrap;" vertex="1" parent="2Pg-pRZ9r6hjVL81onpJ-88">
          <mxGeometry y="98" width="220" height="22" as="geometry" />
        </mxCell>
        <mxCell id="2Pg-pRZ9r6hjVL81onpJ-94" value="" style="line;html=1;strokeWidth=1;align=left;verticalAlign=middle;spacingTop=-1;spacingLeft=3;spacingRight=3;rotatable=0;labelPosition=right;points=[];portConstraint=eastwest;" vertex="1" parent="2Pg-pRZ9r6hjVL81onpJ-88">
          <mxGeometry y="120" width="220" height="8" as="geometry" />
        </mxCell>
        <mxCell id="2Pg-pRZ9r6hjVL81onpJ-95" value="Download study from prod bucket" style="text;align=left;verticalAlign=top;spacingLeft=4;spacingRight=4;overflow=hidden;rotatable=0;points=[[0,0.5],[1,0.5]];portConstraint=eastwest;whiteSpace=wrap;" vertex="1" parent="2Pg-pRZ9r6hjVL81onpJ-88">
          <mxGeometry y="128" width="220" height="22" as="geometry" />
        </mxCell>
        <mxCell id="2Pg-pRZ9r6hjVL81onpJ-96" value="" style="line;html=1;strokeWidth=1;align=left;verticalAlign=middle;spacingTop=-1;spacingLeft=3;spacingRight=3;rotatable=0;labelPosition=right;points=[];portConstraint=eastwest;" vertex="1" parent="2Pg-pRZ9r6hjVL81onpJ-88">
          <mxGeometry y="150" width="220" height="8" as="geometry" />
        </mxCell>
        <mxCell id="2Pg-pRZ9r6hjVL81onpJ-97" value="Decompress zip file into /tmp/decompressed" style="text;align=left;verticalAlign=top;spacingLeft=4;spacingRight=4;overflow=hidden;rotatable=0;points=[[0,0.5],[1,0.5]];portConstraint=eastwest;whiteSpace=wrap;" vertex="1" parent="2Pg-pRZ9r6hjVL81onpJ-88">
          <mxGeometry y="158" width="220" height="40" as="geometry" />
        </mxCell>
        <mxCell id="2Pg-pRZ9r6hjVL81onpJ-98" value="" style="line;html=1;strokeWidth=1;align=left;verticalAlign=middle;spacingTop=-1;spacingLeft=3;spacingRight=3;rotatable=0;labelPosition=right;points=[];portConstraint=eastwest;" vertex="1" parent="2Pg-pRZ9r6hjVL81onpJ-88">
          <mxGeometry y="198" width="220" height="8" as="geometry" />
        </mxCell>
        <mxCell id="2Pg-pRZ9r6hjVL81onpJ-99" value="Upload files to stow endpoint" style="text;align=left;verticalAlign=top;spacingLeft=4;spacingRight=4;overflow=hidden;rotatable=0;points=[[0,0.5],[1,0.5]];portConstraint=eastwest;whiteSpace=wrap;" vertex="1" parent="2Pg-pRZ9r6hjVL81onpJ-88">
          <mxGeometry y="206" width="220" height="24" as="geometry" />
        </mxCell>
        <mxCell id="2Pg-pRZ9r6hjVL81onpJ-100" value="" style="line;html=1;strokeWidth=1;align=left;verticalAlign=middle;spacingTop=-1;spacingLeft=3;spacingRight=3;rotatable=0;labelPosition=right;points=[];portConstraint=eastwest;" vertex="1" parent="2Pg-pRZ9r6hjVL81onpJ-88">
          <mxGeometry y="230" width="220" height="8" as="geometry" />
        </mxCell>
        <mxCell id="2Pg-pRZ9r6hjVL81onpJ-101" value="Unlink/delete all study related files in /tmp/decompressed" style="text;align=left;verticalAlign=top;spacingLeft=4;spacingRight=4;overflow=hidden;rotatable=0;points=[[0,0.5],[1,0.5]];portConstraint=eastwest;whiteSpace=wrap;" vertex="1" parent="2Pg-pRZ9r6hjVL81onpJ-88">
          <mxGeometry y="238" width="220" height="42" as="geometry" />
        </mxCell>
        <mxCell id="2Pg-pRZ9r6hjVL81onpJ-102" value="" style="line;html=1;strokeWidth=1;align=left;verticalAlign=middle;spacingTop=-1;spacingLeft=3;spacingRight=3;rotatable=0;labelPosition=right;points=[];portConstraint=eastwest;" vertex="1" parent="2Pg-pRZ9r6hjVL81onpJ-88">
          <mxGeometry y="280" width="220" height="8" as="geometry" />
        </mxCell>
        <mxCell id="2Pg-pRZ9r6hjVL81onpJ-103" value="Finalize by scan db updates" style="text;align=left;verticalAlign=top;spacingLeft=4;spacingRight=4;overflow=hidden;rotatable=0;points=[[0,0.5],[1,0.5]];portConstraint=eastwest;whiteSpace=wrap;" vertex="1" parent="2Pg-pRZ9r6hjVL81onpJ-88">
          <mxGeometry y="288" width="220" height="22" as="geometry" />
        </mxCell>
        <mxCell id="2Pg-pRZ9r6hjVL81onpJ-104" value="V7 Darwin&#xa;Uploader" style="swimlane;fontStyle=2;align=center;verticalAlign=top;childLayout=stackLayout;horizontal=1;startSize=40;horizontalStack=0;resizeParent=1;resizeLast=0;collapsible=1;marginBottom=0;rounded=0;shadow=0;strokeWidth=1;" vertex="1" parent="WIyWlLk6GJQsqaUBKTNV-1">
          <mxGeometry x="439" y="230" width="220" height="490" as="geometry">
            <mxRectangle x="230" y="140" width="160" height="26" as="alternateBounds" />
          </mxGeometry>
        </mxCell>
        <mxCell id="2Pg-pRZ9r6hjVL81onpJ-105" value="Get latest &#39;is_uploaded_to_ai = 0&#39; scan in scan_ai_v7_queue table&#xa;&#xa;&#xa;&#xa;" style="text;align=left;verticalAlign=top;spacingLeft=4;spacingRight=4;overflow=hidden;rotatable=0;points=[[0,0.5],[1,0.5]];portConstraint=eastwest;whiteSpace=wrap;" vertex="1" parent="2Pg-pRZ9r6hjVL81onpJ-104">
          <mxGeometry y="40" width="220" height="40" as="geometry" />
        </mxCell>
        <mxCell id="2Pg-pRZ9r6hjVL81onpJ-106" value="" style="line;html=1;strokeWidth=1;align=left;verticalAlign=middle;spacingTop=-1;spacingLeft=3;spacingRight=3;rotatable=0;labelPosition=right;points=[];portConstraint=eastwest;" vertex="1" parent="2Pg-pRZ9r6hjVL81onpJ-104">
          <mxGeometry y="80" width="220" height="8" as="geometry" />
        </mxCell>
        <mxCell id="2Pg-pRZ9r6hjVL81onpJ-107" value="Decompress zip file into /tmp/decompressed" style="text;align=left;verticalAlign=top;spacingLeft=4;spacingRight=4;overflow=hidden;rotatable=0;points=[[0,0.5],[1,0.5]];portConstraint=eastwest;rounded=0;shadow=0;html=0;whiteSpace=wrap;" vertex="1" parent="2Pg-pRZ9r6hjVL81onpJ-104">
          <mxGeometry y="88" width="220" height="40" as="geometry" />
        </mxCell>
        <mxCell id="2Pg-pRZ9r6hjVL81onpJ-108" value="" style="line;html=1;strokeWidth=1;align=left;verticalAlign=middle;spacingTop=-1;spacingLeft=3;spacingRight=3;rotatable=0;labelPosition=right;points=[];portConstraint=eastwest;" vertex="1" parent="2Pg-pRZ9r6hjVL81onpJ-104">
          <mxGeometry y="128" width="220" height="8" as="geometry" />
        </mxCell>
        <mxCell id="2Pg-pRZ9r6hjVL81onpJ-109" value="Prepare v7 file registration payload" style="text;align=left;verticalAlign=top;spacingLeft=4;spacingRight=4;overflow=hidden;rotatable=0;points=[[0,0.5],[1,0.5]];portConstraint=eastwest;whiteSpace=wrap;" vertex="1" parent="2Pg-pRZ9r6hjVL81onpJ-104">
          <mxGeometry y="136" width="220" height="22" as="geometry" />
        </mxCell>
        <mxCell id="2Pg-pRZ9r6hjVL81onpJ-110" value="" style="line;html=1;strokeWidth=1;align=left;verticalAlign=middle;spacingTop=-1;spacingLeft=3;spacingRight=3;rotatable=0;labelPosition=right;points=[];portConstraint=eastwest;" vertex="1" parent="2Pg-pRZ9r6hjVL81onpJ-104">
          <mxGeometry y="158" width="220" height="8" as="geometry" />
        </mxCell>
        <mxCell id="2Pg-pRZ9r6hjVL81onpJ-111" value="Iterate each file in decompressed and anonymize" style="text;align=left;verticalAlign=top;spacingLeft=4;spacingRight=4;overflow=hidden;rotatable=0;points=[[0,0.5],[1,0.5]];portConstraint=eastwest;whiteSpace=wrap;" vertex="1" parent="2Pg-pRZ9r6hjVL81onpJ-104">
          <mxGeometry y="166" width="220" height="22" as="geometry" />
        </mxCell>
        <mxCell id="2Pg-pRZ9r6hjVL81onpJ-112" value="" style="line;html=1;strokeWidth=1;align=left;verticalAlign=middle;spacingTop=-1;spacingLeft=3;spacingRight=3;rotatable=0;labelPosition=right;points=[];portConstraint=eastwest;" vertex="1" parent="2Pg-pRZ9r6hjVL81onpJ-104">
          <mxGeometry y="188" width="220" height="8" as="geometry" />
        </mxCell>
        <mxCell id="2Pg-pRZ9r6hjVL81onpJ-113" value="Decompress zip file into /tmp/decompressed" style="text;align=left;verticalAlign=top;spacingLeft=4;spacingRight=4;overflow=hidden;rotatable=0;points=[[0,0.5],[1,0.5]];portConstraint=eastwest;whiteSpace=wrap;" vertex="1" parent="2Pg-pRZ9r6hjVL81onpJ-104">
          <mxGeometry y="196" width="220" height="40" as="geometry" />
        </mxCell>
        <mxCell id="2Pg-pRZ9r6hjVL81onpJ-114" value="" style="line;html=1;strokeWidth=1;align=left;verticalAlign=middle;spacingTop=-1;spacingLeft=3;spacingRight=3;rotatable=0;labelPosition=right;points=[];portConstraint=eastwest;" vertex="1" parent="2Pg-pRZ9r6hjVL81onpJ-104">
          <mxGeometry y="236" width="220" height="8" as="geometry" />
        </mxCell>
        <mxCell id="2Pg-pRZ9r6hjVL81onpJ-115" value="Compress and move into /tmp/anonymized" style="text;align=left;verticalAlign=top;spacingLeft=4;spacingRight=4;overflow=hidden;rotatable=0;points=[[0,0.5],[1,0.5]];portConstraint=eastwest;whiteSpace=wrap;" vertex="1" parent="2Pg-pRZ9r6hjVL81onpJ-104">
          <mxGeometry y="244" width="220" height="38" as="geometry" />
        </mxCell>
        <mxCell id="2Pg-pRZ9r6hjVL81onpJ-116" value="" style="line;html=1;strokeWidth=1;align=left;verticalAlign=middle;spacingTop=-1;spacingLeft=3;spacingRight=3;rotatable=0;labelPosition=right;points=[];portConstraint=eastwest;" vertex="1" parent="2Pg-pRZ9r6hjVL81onpJ-104">
          <mxGeometry y="282" width="220" height="8" as="geometry" />
        </mxCell>
        <mxCell id="2Pg-pRZ9r6hjVL81onpJ-117" value="Unlink/delete all study related files in /tmp/decompressed" style="text;align=left;verticalAlign=top;spacingLeft=4;spacingRight=4;overflow=hidden;rotatable=0;points=[[0,0.5],[1,0.5]];portConstraint=eastwest;whiteSpace=wrap;" vertex="1" parent="2Pg-pRZ9r6hjVL81onpJ-104">
          <mxGeometry y="290" width="220" height="42" as="geometry" />
        </mxCell>
        <mxCell id="2Pg-pRZ9r6hjVL81onpJ-118" value="" style="line;html=1;strokeWidth=1;align=left;verticalAlign=middle;spacingTop=-1;spacingLeft=3;spacingRight=3;rotatable=0;labelPosition=right;points=[];portConstraint=eastwest;" vertex="1" parent="2Pg-pRZ9r6hjVL81onpJ-104">
          <mxGeometry y="332" width="220" height="8" as="geometry" />
        </mxCell>
        <mxCell id="2Pg-pRZ9r6hjVL81onpJ-119" value="Rename zip to dcm" style="text;align=left;verticalAlign=top;spacingLeft=4;spacingRight=4;overflow=hidden;rotatable=0;points=[[0,0.5],[1,0.5]];portConstraint=eastwest;whiteSpace=wrap;" vertex="1" parent="2Pg-pRZ9r6hjVL81onpJ-104">
          <mxGeometry y="340" width="220" height="30" as="geometry" />
        </mxCell>
        <mxCell id="2Pg-pRZ9r6hjVL81onpJ-123" value="" style="line;html=1;strokeWidth=1;align=left;verticalAlign=middle;spacingTop=-1;spacingLeft=3;spacingRight=3;rotatable=0;labelPosition=right;points=[];portConstraint=eastwest;" vertex="1" parent="2Pg-pRZ9r6hjVL81onpJ-104">
          <mxGeometry y="370" width="220" height="8" as="geometry" />
        </mxCell>
        <mxCell id="2Pg-pRZ9r6hjVL81onpJ-120" value="Initiate file cleanup" style="text;align=left;verticalAlign=top;spacingLeft=4;spacingRight=4;overflow=hidden;rotatable=0;points=[[0,0.5],[1,0.5]];portConstraint=eastwest;whiteSpace=wrap;" vertex="1" parent="2Pg-pRZ9r6hjVL81onpJ-104">
          <mxGeometry y="378" width="220" height="32" as="geometry" />
        </mxCell>
        <mxCell id="2Pg-pRZ9r6hjVL81onpJ-124" value="" style="line;html=1;strokeWidth=1;align=left;verticalAlign=middle;spacingTop=-1;spacingLeft=3;spacingRight=3;rotatable=0;labelPosition=right;points=[];portConstraint=eastwest;" vertex="1" parent="2Pg-pRZ9r6hjVL81onpJ-104">
          <mxGeometry y="410" width="220" height="8" as="geometry" />
        </mxCell>
        <mxCell id="2Pg-pRZ9r6hjVL81onpJ-121" value="Set the scan&#39;s is_uploaded_to_ai = 1" style="text;align=left;verticalAlign=top;spacingLeft=4;spacingRight=4;overflow=hidden;rotatable=0;points=[[0,0.5],[1,0.5]];portConstraint=eastwest;whiteSpace=wrap;" vertex="1" parent="2Pg-pRZ9r6hjVL81onpJ-104">
          <mxGeometry y="418" width="220" height="32" as="geometry" />
        </mxCell>
        <mxCell id="2Pg-pRZ9r6hjVL81onpJ-125" value="" style="line;html=1;strokeWidth=1;align=left;verticalAlign=middle;spacingTop=-1;spacingLeft=3;spacingRight=3;rotatable=0;labelPosition=right;points=[];portConstraint=eastwest;" vertex="1" parent="2Pg-pRZ9r6hjVL81onpJ-104">
          <mxGeometry y="450" width="220" height="8" as="geometry" />
        </mxCell>
        <mxCell id="2Pg-pRZ9r6hjVL81onpJ-122" value="Upload to v7 using payload and file" style="text;align=left;verticalAlign=top;spacingLeft=4;spacingRight=4;overflow=hidden;rotatable=0;points=[[0,0.5],[1,0.5]];portConstraint=eastwest;whiteSpace=wrap;" vertex="1" parent="2Pg-pRZ9r6hjVL81onpJ-104">
          <mxGeometry y="458" width="220" height="32" as="geometry" />
        </mxCell>
      </root>
    </mxGraphModel>
  </diagram>
</mxfile>
